<svg stroke="#fff" fill="#fff" stroke-width="0" viewBox="0 0 512 512" height="2em" width="2em" xmlns="http://www.w3.org/2000/svg"><path fill="none" stroke-linecap="round" stroke-linejoin="round" stroke-width="24" d="M448 341.37V170.61A32 32 0 0 0 432.11 143l-152-88.46a47.94 47.94 0 0 0-48.24 0L79.89 143A32 32 0 0 0 64 170.61v170.76A32 32 0 0 0 79.89 369l152 88.46a48 48 0 0 0 48.24 0l152-88.46A32 32 0 0 0 448 341.37z"/><path fill="none" stroke-linecap="round" stroke-linejoin="round" stroke-width="24" d="m69 153.99 187 110 187-110m-187 310v-200"/><ellipse cx="256" cy="152" rx="24" ry="16" stroke="none"/><ellipse cx="208" cy="296" rx="16" ry="24" stroke="none"/><ellipse cx="112" cy="328" rx="16" ry="24" stroke="none"/><ellipse cx="304" cy="296" rx="16" ry="24" stroke="none"/><ellipse cx="400" cy="240" rx="16" ry="24" stroke="none"/><ellipse cx="304" cy="384" rx="16" ry="24" stroke="none"/><ellipse cx="400" cy="328" rx="16" ry="24" stroke="none"/></svg>